<svg width="834" height="304" viewBox="0 0 834 304" fill="none" xmlns="http://www.w3.org/2000/svg">
<path fill-rule="evenodd" clip-rule="evenodd" d="M782.029 21.9994C775.191 17.7993 768.354 13.5964 761.517 9.39466C761.121 9.93367 760.725 10.4711 760.33 11.0085C759.794 10.6139 759.257 10.2194 758.72 9.8237C737.01 33.8673 739.257 17.3614 716.755 16.2595C708.572 17.9898 699.191 25.9356 691.657 30.1335C684.962 26.8637 678.265 23.5955 671.568 20.3274C664.098 25.3458 652.997 34.1653 644.863 33.0133C639.396 31.7271 630.442 27.4221 624.01 27.6197C615.689 29.3581 606.564 36.8481 598.913 41.492C589.529 35.7167 576.123 31.0192 568.058 36.2019C559.459 38.039 549.621 46.9096 541.773 51.6869C533.097 46.2539 516.548 38.8429 508.885 42.4134C500.83 45.0045 491.327 53.947 484.629 61.8822C474.691 54.7788 463.155 49.1288 453.695 46.5808C446.489 55.652 433.399 67.023 424.268 69.7076C415.257 68.9677 401.652 57.0191 393.334 54.4062C384.996 62.3682 376.655 70.3278 368.315 78.2886C360.057 73.0852 339.409 60.5944 331.787 63.8466C321.761 67.4817 313.641 82.1064 303.548 85.3594C293.11 86.2887 274.708 76.0121 263.796 68.5454C248.009 74.4442 209.157 78.9466 192.246 78.0882C191.85 78.6272 191.454 79.1646 191.059 79.702C191.595 80.0965 192.131 80.4911 192.669 80.8868C192.317 93.1548 205.104 165.414 215.432 174.753C226.395 177.844 237.361 180.935 248.322 184.025C247.44 199.424 252.21 221.182 257.541 235.585C267.909 230.029 277.914 231.144 287.893 228.069C321.741 217.631 356.479 211.107 389.715 201C482.846 172.675 577.062 152.424 670.003 123.653C703.216 113.369 738.076 106.969 771.825 96.5835C784.704 92.6169 798.653 94.6941 811.333 83.3645C811.902 59.9001 828.034 25.7506 833.493 2.65289C832.419 1.86264 831.345 1.07239 830.273 0.283325C815.826 5.27789 802.314 -1.5223 789.576 15.115C786.625 16.1647 785.206 18.0359 782.029 21.9994ZM232.102 256.67C232.978 242.998 230.486 214.08 222.46 202.31C212.633 203.354 196.712 197.163 186.352 190.667C184.446 150.617 161.95 101.244 162.921 63.9732C162.383 63.5774 161.847 63.1829 161.31 62.7884C160.914 63.3274 160.518 63.8648 160.123 64.4022C107.482 69.6119 54.8243 74.8241 2.18329 80.0338C1.78787 80.5712 1.39244 81.1086 0.995838 81.6476C12.5594 98.8202 8.13759 128.86 13.941 148.386C27.0871 192.616 44.5345 266.496 86.02 303.409C95.2841 296.121 103.279 298.036 111.965 295.137C137.862 286.114 165.104 277.346 189.793 270.315C203.445 265.895 217.841 256.321 232.102 256.67ZM175.221 249.643C158.426 250.31 109.703 270.751 92.2185 278.119C91.6823 277.725 91.1461 277.33 90.6099 276.936C108.701 230.842 94.395 181.246 65.9086 141.846C55.5201 127.478 30.4898 114.794 25.1489 99.4193C55.6974 100.909 87.8397 91.9153 117.895 88.0576C123.102 87.3909 145.359 86.8896 145.109 88.1807C152.466 98.9499 148.465 111.687 151.791 122.95C159.287 150.944 164.724 181.131 169.304 210.463C171.293 223.195 179.349 236.078 175.221 249.643Z" fill="#F98F1E"/>
</svg>
